<svg width="126" height="50" viewBox="0 0 126 50" fill="none" xmlns="http://www.w3.org/2000/svg">
<path d="M23.4 30.996C23.016 33.3 21.648 35.064 19.296 36.288C17.28 37.32 14.772 37.836 11.772 37.836C7.572 37.836 4.428 36.648 2.34 34.272C0.78 32.496 0 30.336 0 27.792C0 26.016 0.396 24.444 1.188 23.076L6.804 21.888C5.988 23.448 5.58 25.068 5.58 26.748C5.58 30.54 7.644 32.436 11.772 32.436C14.58 32.436 16.38 31.956 17.172 30.996H13.86L16.848 25.236H23.508V30.996H23.4ZM8.676 45.936C7.788 45.936 7.068 45.648 6.516 45.072C5.964 44.52 5.688 43.8 5.688 42.912C5.688 42.024 5.964 41.304 6.516 40.752C7.068 40.224 7.788 39.96 8.676 39.96C9.564 39.96 10.272 40.224 10.8 40.752C11.352 41.304 11.628 42.024 11.628 42.912C11.628 43.824 11.352 44.556 10.8 45.108C10.272 45.66 9.564 45.936 8.676 45.936ZM15.156 45.936C14.268 45.936 13.548 45.648 12.996 45.072C12.444 44.52 12.168 43.8 12.168 42.912C12.168 42.024 12.444 41.304 12.996 40.752C13.548 40.224 14.268 39.96 15.156 39.96C16.044 39.96 16.752 40.224 17.28 40.752C17.832 41.304 18.108 42.024 18.108 42.912C18.108 43.824 17.832 44.556 17.28 45.108C16.752 45.66 16.044 45.936 15.156 45.936Z" fill="#3E2620"/>
<path d="M44.2845 25.236H47.6325V30.996H43.7445C42.2565 30.996 40.9845 30.672 39.9285 30.024C38.6085 31.152 36.9765 31.716 35.0325 31.716C33.0885 31.716 31.4565 31.152 30.1365 30.024C29.1045 30.672 27.8325 30.996 26.3205 30.996H22.4325V25.236H25.7805C26.4045 25.236 26.8245 25.128 27.0405 24.912C27.2565 24.696 27.3645 24.276 27.3645 23.652V22.716C27.3885 19.86 28.1565 17.628 29.6685 16.02C31.0365 14.604 32.8245 13.896 35.0325 13.896C37.5765 13.896 39.5325 14.82 40.9005 16.668C42.0765 18.228 42.6765 20.244 42.7005 22.716V23.652C42.7005 24.276 42.8085 24.696 43.0245 24.912C43.2405 25.128 43.6605 25.236 44.2845 25.236ZM35.0325 25.956C36.1845 25.956 36.7605 24.828 36.7605 22.572C36.7605 20.508 36.1845 19.476 35.0325 19.476C33.8805 19.476 33.3045 20.508 33.3045 22.572C33.3045 24.828 33.8805 25.956 35.0325 25.956Z" fill="#3E2620"/>
<path d="M67.2773 5.4C66.4613 5.4 65.8012 5.16 65.2972 4.68C64.8172 4.176 64.5772 3.504 64.5772 2.664C64.5772 1.848 64.8172 1.2 65.2972 0.720001C65.8012 0.24 66.4613 0 67.2773 0C68.0933 0 68.7413 0.24 69.2213 0.720001C69.7253 1.2 69.9772 1.848 69.9772 2.664C69.9772 3.48 69.7253 4.14 69.2213 4.644C68.7413 5.148 68.0933 5.4 67.2773 5.4ZM64.0732 11.736C63.1852 11.736 62.4653 11.46 61.9132 10.908C61.3612 10.332 61.0853 9.6 61.0853 8.712C61.0853 7.824 61.3612 7.116 61.9132 6.588C62.4653 6.036 63.1852 5.76 64.0732 5.76C64.9612 5.76 65.6693 6.036 66.1973 6.588C66.7493 7.116 67.0253 7.824 67.0253 8.712C67.0253 9.624 66.7493 10.356 66.1973 10.908C65.6693 11.46 64.9612 11.736 64.0732 11.736ZM70.5533 11.736C69.6653 11.736 68.9452 11.46 68.3932 10.908C67.8412 10.332 67.5652 9.6 67.5652 8.712C67.5652 7.824 67.8412 7.116 68.3932 6.588C68.9452 6.036 69.6653 5.76 70.5533 5.76C71.4413 5.76 72.1493 6.036 72.6773 6.588C73.2293 7.116 73.5052 7.824 73.5052 8.712C73.5052 9.624 73.2293 10.356 72.6773 10.908C72.1493 11.46 71.4413 11.736 70.5533 11.736ZM46.9012 30.996V25.236H50.6092C51.2332 25.236 51.6533 25.128 51.8693 24.912C52.0853 24.696 52.1932 24.276 52.1932 23.652V19.188L58.1333 16.056V23.652C58.1333 24.276 58.2413 24.696 58.4573 24.912C58.6733 25.128 59.0933 25.236 59.7173 25.236H62.8853C63.5092 25.236 63.9292 25.128 64.1452 24.912C64.3612 24.696 64.4693 24.276 64.4693 23.652V18.468L70.4092 15.336V23.652C70.4092 24.276 70.5173 24.696 70.7333 24.912C70.9493 25.128 71.3692 25.236 71.9932 25.236H75.1973C75.8213 25.236 76.2413 25.128 76.4573 24.912C76.6733 24.696 76.7812 24.276 76.7812 23.652V17.748L82.7213 14.616V22.752C82.7213 23.712 82.8772 24.372 83.1892 24.732C83.5252 25.068 84.1492 25.236 85.0612 25.236H88.0133V30.996H84.8092C82.9852 30.996 81.4133 30.564 80.0933 29.7C79.0133 30.492 77.6692 30.924 76.0612 30.996H71.4533C69.9413 30.996 68.5972 30.636 67.4212 29.916C66.4132 30.564 65.2013 30.924 63.7853 30.996H59.1772C57.6652 30.996 56.3213 30.636 55.1453 29.916C54.0173 30.636 52.6853 30.996 51.1493 30.996H46.9012Z" fill="#3E2620"/>
<path d="M93.8838 11.736C92.9958 11.736 92.2758 11.46 91.7238 10.908C91.1718 10.332 90.8958 9.6 90.8958 8.712C90.8958 7.824 91.1718 7.116 91.7238 6.588C92.2758 6.036 92.9958 5.76 93.8838 5.76C94.7718 5.76 95.4798 6.036 96.0078 6.588C96.5598 7.116 96.8358 7.824 96.8358 8.712C96.8358 9.624 96.5598 10.356 96.0078 10.908C95.4798 11.46 94.7718 11.736 93.8838 11.736ZM99.7518 25.236H103.1V30.996H99.2118C97.6758 30.996 96.3438 30.636 95.2158 29.916C94.0398 30.636 92.6958 30.996 91.1838 30.996H87.2958V25.236H90.6438C91.2678 25.236 91.6878 25.128 91.9038 24.912C92.1198 24.696 92.2278 24.276 92.2278 23.652V17.748L98.1678 14.616V23.652C98.1678 24.276 98.2758 24.696 98.4918 24.912C98.7078 25.128 99.1278 25.236 99.7518 25.236Z" fill="#3E2620"/>
<path d="M102.378 30.996V25.236H104.286C105.198 25.236 105.81 25.068 106.122 24.732C106.458 24.372 106.626 23.712 106.626 22.752V10.944L112.566 7.776V22.788C112.566 25.332 111.786 27.36 110.226 28.872C108.786 30.288 106.89 30.996 104.538 30.996H102.378Z" fill="#3E2620"/>
<path d="M119.056 30.996V10.944L124.996 7.776V30.996H119.056Z" fill="#3E2620"/>
<path d="M27.666 35.326C27.078 35.326 26.784 35.026 26.784 34.426C26.784 33.838 27.078 33.544 27.666 33.544C28.242 33.544 28.53 33.838 28.53 34.426C28.53 35.026 28.242 35.326 27.666 35.326ZM29.952 35.326C29.364 35.326 29.07 35.026 29.07 34.426C29.07 33.838 29.364 33.544 29.952 33.544C30.528 33.544 30.816 33.838 30.816 34.426C30.816 35.026 30.528 35.326 29.952 35.326ZM33.3 44.038H34.488V45.496H33.12C31.884 45.496 30.996 45.04 30.456 44.128C29.88 44.68 29.166 44.956 28.314 44.956C27.258 44.956 26.418 44.56 25.794 43.768C25.278 43.096 25.02 42.274 25.02 41.302C25.02 40.138 25.374 39.202 26.082 38.494C26.682 37.882 27.414 37.576 28.278 37.576C28.938 37.576 29.508 37.744 29.988 38.08V37.306L31.554 36.478V42.238C31.554 43.438 32.136 44.038 33.3 44.038ZM29.988 39.754C29.544 39.262 28.998 39.016 28.35 39.016C27.822 39.016 27.39 39.232 27.054 39.664C26.718 40.084 26.55 40.636 26.55 41.32C26.55 42.016 26.718 42.574 27.054 42.994C27.39 43.414 27.828 43.624 28.368 43.624C29.04 43.624 29.592 43.348 30.024 42.796C30 42.58 29.988 42.412 29.988 42.292V39.754Z" fill="#3E2620"/>
<path d="M39.1386 44.038H40.3266V45.496H38.9586C37.9626 45.496 37.1766 45.178 36.6006 44.542C36.0246 45.178 35.2386 45.496 34.2426 45.496H32.8746V44.038H34.0626C35.2386 44.038 35.8266 43.438 35.8266 42.238V38.512L37.3746 37.684V42.238C37.3746 43.438 37.9626 44.038 39.1386 44.038ZM34.8366 47.296C35.4126 47.296 35.7006 47.596 35.7006 48.196C35.7006 48.784 35.4126 49.078 34.8366 49.078C34.2486 49.078 33.9546 48.784 33.9546 48.196C33.9546 47.596 34.2486 47.296 34.8366 47.296ZM37.1226 47.296C37.6986 47.296 37.9866 47.596 37.9866 48.196C37.9866 48.784 37.6986 49.078 37.1226 49.078C36.5346 49.078 36.2406 48.784 36.2406 48.196C36.2406 47.596 36.5346 47.296 37.1226 47.296Z" fill="#3E2620"/>
<path d="M38.6979 45.496V44.038H39.8859C41.0619 44.038 41.6499 43.438 41.6499 42.238V38.512L43.1979 37.684V42.292C43.1979 43.312 42.8919 44.116 42.2799 44.704C41.7159 45.232 40.9779 45.496 40.0659 45.496H38.6979ZM41.5959 49.078C41.0079 49.078 40.7139 48.778 40.7139 48.178C40.7139 47.59 41.0079 47.296 41.5959 47.296C42.1719 47.296 42.4599 47.59 42.4599 48.178C42.4599 48.778 42.1719 49.078 41.5959 49.078Z" fill="#3E2620"/>
<path d="M51.4779 44.038H52.6659V45.496H51.2979C50.6859 45.496 50.1579 45.376 49.7139 45.136C49.6059 46.324 49.1919 47.272 48.4719 47.98C47.8119 48.628 46.9839 48.952 45.9879 48.952C45.2679 48.952 44.5659 48.772 43.8819 48.412V47.062C44.4939 47.398 45.1059 47.566 45.7179 47.566C46.4859 47.566 47.0859 47.308 47.5179 46.792C47.9499 46.276 48.1659 45.562 48.1659 44.65V38.512L49.7139 37.684V37.702L49.7319 37.684V42.598C49.8399 43.558 50.4219 44.038 51.4779 44.038Z" fill="#3E2620"/>
<path d="M64.6916 44.038V45.496H59.7956C59.1476 45.496 58.5056 45.37 57.8696 45.118C57.2336 45.37 56.5856 45.496 55.9256 45.496H51.0476V44.038H56.0516C55.1876 43.33 54.2996 42.292 53.3876 40.924V40.132C53.9636 39.304 54.6476 38.65 55.4396 38.17C56.2436 37.69 57.0476 37.45 57.8516 37.45C58.6556 37.45 59.4596 37.696 60.2636 38.188C61.0676 38.668 61.7636 39.328 62.3516 40.168V40.924C61.4396 42.292 60.5456 43.33 59.6696 44.038H64.6916ZM54.8276 40.546C55.9316 42.058 56.9456 43.054 57.8696 43.534C58.7936 43.042 59.8076 42.04 60.9116 40.528C60.0116 39.436 58.9916 38.884 57.8516 38.872C56.7116 38.872 55.7036 39.43 54.8276 40.546Z" fill="#3E2620"/>
<path d="M63.0759 45.496V44.038H64.0299C65.2779 44.038 65.9019 43.384 65.9019 42.076V34.714L67.4679 33.886V42.094C67.4679 43.162 67.1499 44.008 66.5139 44.632C65.9139 45.208 65.1279 45.496 64.1559 45.496H63.0759Z" fill="#3E2620"/>
<path d="M70.1627 45.496V34.714L71.7107 33.886V45.496H70.1627Z" fill="#3E2620"/>
<path d="M79.9372 35.326C79.3492 35.326 79.0552 35.026 79.0552 34.426C79.0552 33.838 79.3492 33.544 79.9372 33.544C80.5132 33.544 80.8012 33.838 80.8012 34.426C80.8012 35.026 80.5132 35.326 79.9372 35.326ZM82.2412 35.326C81.6532 35.326 81.3592 35.026 81.3592 34.426C81.3592 33.838 81.6532 33.544 82.2412 33.544C82.8172 33.544 83.1052 33.838 83.1052 34.426C83.1052 35.026 82.8172 35.326 82.2412 35.326ZM81.1072 45.496C80.0152 45.496 79.1632 45.13 78.5512 44.398C78.0232 43.762 77.7592 42.952 77.7592 41.968C77.7592 40.9 78.0532 39.976 78.6412 39.196C79.2412 38.404 80.0932 37.822 81.1972 37.45C82.3612 37.846 83.2372 38.47 83.8252 39.322C84.3532 40.078 84.6172 40.96 84.6172 41.968C84.6172 43.108 84.2812 44.002 83.6092 44.65C83.0092 45.214 82.2352 45.496 81.2872 45.496H81.1072ZM81.0532 44.038H81.3232C81.8632 44.038 82.2892 43.852 82.6012 43.48C82.9252 43.108 83.0872 42.61 83.0872 41.986C83.0872 40.546 82.4572 39.514 81.1972 38.89C79.9372 39.514 79.3072 40.54 79.3072 41.968C79.3072 42.604 79.4632 43.108 79.7752 43.48C80.0872 43.852 80.5132 44.038 81.0532 44.038Z" fill="#3E2620"/>
<path d="M95.3179 44.038V45.496H93.0859C93.0379 46.528 92.5939 47.38 91.7539 48.052C91.0459 48.604 90.2419 48.88 89.3419 48.88C88.5979 48.88 87.8959 48.706 87.2359 48.358V46.99C87.8719 47.326 88.5019 47.494 89.1259 47.494C89.7619 47.494 90.3139 47.296 90.7819 46.9C91.2619 46.504 91.5079 46.03 91.5199 45.478C90.8959 45.454 90.4339 45.43 90.1339 45.406C88.8379 45.334 87.8599 44.896 87.1999 44.092C86.6479 43.42 86.3719 42.55 86.3719 41.482C86.3719 40.174 86.7199 39.154 87.4159 38.422C88.0399 37.774 88.8619 37.45 89.8819 37.45C90.9499 37.45 91.7719 37.768 92.3479 38.404C92.8399 38.968 93.0859 39.706 93.0859 40.618V44.038H95.3179ZM91.5199 40.726C91.5199 39.502 90.9739 38.89 89.8819 38.89C89.2579 38.89 88.7719 39.118 88.4239 39.574C88.0759 40.018 87.9019 40.642 87.9019 41.446C87.9019 43.018 88.6699 43.852 90.2059 43.948C90.4939 43.984 90.9319 44.014 91.5199 44.038V40.726Z" fill="#3E2620"/>
<path d="M105.962 44.038H107.15V45.496H105.782C104.774 45.496 103.994 45.184 103.442 44.56C102.854 45.184 102.056 45.496 101.048 45.496H99.1041C98.6961 45.496 98.3121 45.436 97.9521 45.316C97.5801 45.436 97.1961 45.496 96.8001 45.496H93.7041V44.038H96.0261C95.5701 43.426 95.3421 42.73 95.3421 41.95C95.3421 41.242 95.5161 40.642 95.8641 40.15C96.1641 39.046 96.7341 38.2 97.5741 37.612C98.2581 37.144 99.0321 36.91 99.8961 36.91C101.168 36.91 102.218 37.342 103.046 38.206C103.826 39.022 104.216 40.072 104.216 41.356V42.238C104.216 43.438 104.798 44.038 105.962 44.038ZM100.994 44.038C101.582 44.038 102.002 43.894 102.254 43.606C102.518 43.306 102.65 42.826 102.65 42.166V41.356C102.65 40.36 102.332 39.586 101.696 39.034C101.18 38.578 100.562 38.35 99.8421 38.35C99.0141 38.35 98.3661 38.62 97.8981 39.16H97.9521C98.7441 39.16 99.3741 39.418 99.8421 39.934C100.322 40.438 100.562 41.11 100.562 41.95C100.562 42.754 100.328 43.45 99.8601 44.038H100.994ZM97.9521 43.876C98.9361 43.54 99.4281 42.868 99.4281 41.86C99.4281 41.356 99.2901 40.954 99.0141 40.654C98.7501 40.342 98.3961 40.186 97.9521 40.186C97.5081 40.186 97.1481 40.342 96.8721 40.654C96.6081 40.954 96.4761 41.356 96.4761 41.86C96.4761 42.868 96.9681 43.54 97.9521 43.876Z" fill="#3E2620"/>
<path d="M109.985 35.632C109.397 35.632 109.103 35.332 109.103 34.732C109.103 34.144 109.397 33.85 109.985 33.85C110.561 33.85 110.849 34.144 110.849 34.732C110.849 35.332 110.561 35.632 109.985 35.632ZM112.271 35.632C111.683 35.632 111.389 35.332 111.389 34.732C111.389 34.144 111.683 33.85 112.271 33.85C112.847 33.85 113.135 34.144 113.135 34.732C113.135 35.332 112.847 35.632 112.271 35.632ZM113.387 44.038H116.735V45.496H112.343C111.875 45.496 111.467 45.454 111.119 45.37C110.783 45.454 110.375 45.496 109.895 45.496H105.521V44.038H108.869C108.125 43.186 107.753 42.244 107.753 41.212C107.753 40.036 108.083 39.1 108.743 38.404C109.343 37.768 110.135 37.45 111.119 37.45C112.247 37.45 113.117 37.858 113.729 38.674C114.245 39.346 114.503 40.192 114.503 41.212C114.503 42.244 114.131 43.186 113.387 44.038ZM111.137 43.876C111.689 43.684 112.139 43.336 112.487 42.832C112.835 42.316 113.009 41.752 113.009 41.14C113.009 40.444 112.835 39.898 112.487 39.502C112.151 39.094 111.695 38.89 111.119 38.89C110.543 38.89 110.081 39.094 109.733 39.502C109.397 39.91 109.229 40.456 109.229 41.14C109.229 41.74 109.409 42.298 109.769 42.814C110.129 43.33 110.585 43.684 111.137 43.876Z" fill="#3E2620"/>
<path d="M121.262 44.038H122.45V45.496H121.082C120.05 45.496 119.252 45.166 118.688 44.506C118.088 45.166 117.26 45.496 116.204 45.496H115.124V44.038H116.078C117.326 44.038 117.95 43.384 117.95 42.076V34.714L119.516 33.886V42.094C119.516 42.79 119.648 43.288 119.912 43.588C120.188 43.888 120.638 44.038 121.262 44.038Z" fill="#3E2620"/>
<path d="M120.824 45.496V44.038H121.778C123.026 44.038 123.65 43.384 123.65 42.076V34.714L125.216 33.886V42.094C125.216 43.162 124.898 44.008 124.262 44.632C123.662 45.208 122.876 45.496 121.904 45.496H120.824Z" fill="#3E2620"/>
</svg>
